<svg xmlns="http://www.w3.org/2000/svg" viewBox="0 0 440 464" width="440" height="464" role="img" aria-labelledby="t d"><title id="t">Skill Radar</title><desc id="d">Radar chart: Skill Radar</desc><defs><linearGradient id="edge" x1="0" y1="0" x2="1" y2="1"><stop stop-color="#0891B2"/><stop offset="1" stop-color="#7C3AED"/></linearGradient><pattern id="dots" width="22" height="22" patternUnits="userSpaceOnUse"><circle cx="1" cy="1" r="1" fill="#E6ECF5"/></pattern></defs><rect width="440" height="464" rx="18" fill="#F7F9FC"/><rect width="440" height="464" rx="18" fill="url(#dots)"/><rect x="1.5" y="1.5" width="437" height="461" rx="17" fill="none" stroke="url(#edge)" stroke-width="2" opacity=".85"/><text x="220.0" y="40" fill="#0F172A" font-family="'Segoe UI', Inter, -apple-system, Helvetica, Arial, sans-serif" font-size="16" font-weight="700" text-anchor="middle">Skill Radar</text><polygon points="220.0,106.0 323.2,155.7 348.7,267.4 277.3,356.9 162.7,356.9 91.3,267.4 116.8,155.7" fill="none" stroke="#D5DEEB" opacity="1.00"/><polygon points="220.0,139.0 297.4,176.3 316.5,260.0 263.0,327.2 177.0,327.2 123.5,260.0 142.6,176.3" fill="none" stroke="#D5DEEB" opacity="0.85"/><polygon points="220.0,172.0 271.6,196.8 284.3,252.7 248.6,297.5 191.4,297.5 155.7,252.7 168.4,196.8" fill="none" stroke="#D5DEEB" opacity="0.70"/><polygon points="220.0,205.0 245.8,217.4 252.2,245.3 234.3,267.7 205.7,267.7 187.8,245.3 194.2,217.4" fill="none" stroke="#D5DEEB" opacity="0.55"/><line x1="220.0" y1="238.0" x2="220.0" y2="106.0" stroke="#D5DEEB"/><line x1="220.0" y1="238.0" x2="323.2" y2="155.7" stroke="#D5DEEB"/><line x1="220.0" y1="238.0" x2="348.7" y2="267.4" stroke="#D5DEEB"/><line x1="220.0" y1="238.0" x2="277.3" y2="356.9" stroke="#D5DEEB"/><line x1="220.0" y1="238.0" x2="162.7" y2="356.9" stroke="#D5DEEB"/><line x1="220.0" y1="238.0" x2="91.3" y2="267.4" stroke="#D5DEEB"/><line x1="220.0" y1="238.0" x2="116.8" y2="155.7" stroke="#D5DEEB"/><defs><linearGradient id="fill" x1="0" y1="0" x2="1" y2="1"><stop stop-color="#0891B2"/><stop offset="1" stop-color="#7C3AED"/></linearGradient></defs><g transform="translate(220.0,238.0)"><g><animateTransform attributeName="transform" type="scale" values="0.05;1" dur="1.1s" calcMode="spline" keyTimes="0;1" keySplines="0.22 1 0.36 1" fill="freeze"/><polygon points="0.0,-116.2 84.6,-67.5 108.1,24.7 45.8,95.1 -44.7,92.8 -109.4,25.0 -72.2,-57.6" fill="url(#fill)" fill-opacity=".25" stroke="#0891B2" stroke-width="2.4" stroke-linejoin="round"/><circle cx="0.0" cy="-116.2" r="3.8" fill="#F7F9FC" stroke="#0891B2" stroke-width="2"/><circle cx="84.6" cy="-67.5" r="3.8" fill="#F7F9FC" stroke="#0891B2" stroke-width="2"/><circle cx="108.1" cy="24.7" r="3.8" fill="#F7F9FC" stroke="#0891B2" stroke-width="2"/><circle cx="45.8" cy="95.1" r="3.8" fill="#F7F9FC" stroke="#0891B2" stroke-width="2"/><circle cx="-44.7" cy="92.8" r="3.8" fill="#F7F9FC" stroke="#0891B2" stroke-width="2"/><circle cx="-109.4" cy="25.0" r="3.8" fill="#F7F9FC" stroke="#0891B2" stroke-width="2"/><circle cx="-72.2" cy="-57.6" r="3.8" fill="#F7F9FC" stroke="#0891B2" stroke-width="2"/></g></g><text x="220.0" y="84.0" fill="#0F172A" font-family="'Segoe UI', Inter, -apple-system, Helvetica, Arial, sans-serif" font-size="13" font-weight="600" text-anchor="middle">React</text><text x="220.0" y="100.0" fill="#5E6B85" font-family="ui-monospace, SFMono-Regular, 'JetBrains Mono', Menlo, Consolas, monospace" font-size="12" font-weight="400" text-anchor="middle">88</text><text x="340.4" y="142.0" fill="#0F172A" font-family="'Segoe UI', Inter, -apple-system, Helvetica, Arial, sans-serif" font-size="13" font-weight="600" text-anchor="start">React Native</text><text x="340.4" y="158.0" fill="#5E6B85" font-family="ui-monospace, SFMono-Regular, 'JetBrains Mono', Menlo, Consolas, monospace" font-size="12" font-weight="400" text-anchor="start">82</text><text x="370.1" y="276.3" fill="#0F172A" font-family="'Segoe UI', Inter, -apple-system, Helvetica, Arial, sans-serif" font-size="13" font-weight="600" text-anchor="start">TypeScript</text><text x="370.1" y="292.3" fill="#5E6B85" font-family="ui-monospace, SFMono-Regular, 'JetBrains Mono', Menlo, Consolas, monospace" font-size="12" font-weight="400" text-anchor="start">84</text><text x="286.8" y="380.7" fill="#0F172A" font-family="'Segoe UI', Inter, -apple-system, Helvetica, Arial, sans-serif" font-size="13" font-weight="600" text-anchor="start">State &amp; Data</text><text x="286.8" y="396.7" fill="#5E6B85" font-family="ui-monospace, SFMono-Regular, 'JetBrains Mono', Menlo, Consolas, monospace" font-size="12" font-weight="400" text-anchor="start">80</text><text x="153.2" y="380.7" fill="#0F172A" font-family="'Segoe UI', Inter, -apple-system, Helvetica, Arial, sans-serif" font-size="13" font-weight="600" text-anchor="end">UI / UX</text><text x="153.2" y="396.7" fill="#5E6B85" font-family="ui-monospace, SFMono-Regular, 'JetBrains Mono', Menlo, Consolas, monospace" font-size="12" font-weight="400" text-anchor="end">78</text><text x="69.9" y="276.3" fill="#0F172A" font-family="'Segoe UI', Inter, -apple-system, Helvetica, Arial, sans-serif" font-size="13" font-weight="600" text-anchor="end">APIs REST</text><text x="69.9" y="292.3" fill="#5E6B85" font-family="ui-monospace, SFMono-Regular, 'JetBrains Mono', Menlo, Consolas, monospace" font-size="12" font-weight="400" text-anchor="end">85</text><text x="99.6" y="142.0" fill="#0F172A" font-family="'Segoe UI', Inter, -apple-system, Helvetica, Arial, sans-serif" font-size="13" font-weight="600" text-anchor="end">Testing &amp; QA</text><text x="99.6" y="158.0" fill="#5E6B85" font-family="ui-monospace, SFMono-Regular, 'JetBrains Mono', Menlo, Consolas, monospace" font-size="12" font-weight="400" text-anchor="end">70</text></svg>